<svg width="302" height="275" viewBox="0 0 302 275" fill="none" xmlns="http://www.w3.org/2000/svg">
<path d="M224 79.5959C240.677 74.037 253.5 69.5959 253.5 45.596C168.883 -22.968 126.013 -2.97966 94 32.5959C67.5 67.0959 50.3705 103.442 0 109.596C69.2 109.596 107.833 89.5959 118.5 79.5959C118.5 79.5959 134.53 59.823 149 58.0959C168.975 55.7119 207.5 85.0959 224 79.5959Z" fill="url(#paint0_linear_23_15)"/>
<path d="M0 109.596C50.3705 103.442 67.5 67.0959 94 32.5959C125.972 -2.93421 168.774 -22.9169 253.176 45.3336C194.366 -2.1564 146.769 21.8429 118.5 79.5959C152 98.0959 167 35.5959 207 54.0959C207 54.0959 186 106.096 133.5 128.596C81 151.096 0 109.596 0 109.596Z" fill="url(#paint1_linear_23_15)"/>
<path d="M71.0957 139.424C53.5483 140.477 40.0127 141.448 33.8011 164.63C97.7888 252.758 144.372 244.547 184.502 218.469C219.028 192.003 244.981 161.329 295.228 168.422C228.386 150.511 185.892 159.831 173.001 166.729C173.001 166.729 152.4 181.68 137.976 179.603C118.064 176.736 88.457 138.382 71.0957 139.424Z" fill="url(#paint2_linear_23_15)"/>
<path d="M295.228 168.422C244.981 161.329 219.028 192.003 184.502 218.469C144.423 244.513 97.9078 252.737 34.0463 164.968C78.5612 226.06 130.748 215.198 173.001 166.729C145.431 140.189 114.765 196.677 80.9166 168.455C80.9166 168.455 114.66 123.662 171.194 115.517C227.729 107.371 295.228 168.422 295.228 168.422Z" fill="url(#paint3_linear_23_15)"/>
<defs>
<linearGradient id="paint0_linear_23_15" x1="136.5" y1="48.0959" x2="204.5" y2="132.096" gradientUnits="userSpaceOnUse">
<stop stop-color="#003E44"/>
<stop offset="1" stop-color="#83C5BE"/>
</linearGradient>
<linearGradient id="paint1_linear_23_15" x1="-5.84593e-07" y1="108.096" x2="196.5" y2="68.096" gradientUnits="userSpaceOnUse">
<stop stop-color="#003E44"/>
<stop offset="1" stop-color="#006D77"/>
</linearGradient>
<linearGradient id="paint2_linear_23_15" x1="147.461" y1="192.497" x2="103.519" y2="93.7597" gradientUnits="userSpaceOnUse">
<stop stop-color="#CC6842"/>
<stop offset="1" stop-color="#FFDDD2"/>
</linearGradient>
<linearGradient id="paint3_linear_23_15" x1="294.839" y1="169.87" x2="94.6823" y2="157.65" gradientUnits="userSpaceOnUse">
<stop stop-color="#CC6842"/>
<stop offset="1" stop-color="#E29578"/>
</linearGradient>
</defs>
</svg>
